<svg width="1400" height="504" viewBox="0 0 1400 504" fill="none" xmlns="http://www.w3.org/2000/svg">
<rect width="1400" height="504" fill="url(#paint0_linear_5420_114930)"/>
<g opacity="0.2" clip-path="url(#clip0_5420_114930)">
<path d="M697.41 276.005L676.17 295.674C674.494 297.225 674.359 299.881 675.868 301.604L694.99 323.451C696.499 325.175 699.081 325.314 700.756 323.762L721.996 304.093C723.672 302.541 723.807 299.886 722.298 298.162L703.176 276.316C701.667 274.592 699.085 274.453 697.41 276.005Z" stroke="#8DB1D4" stroke-width="1.71" stroke-linecap="round" stroke-linejoin="round"/>
<path d="M681.331 307.846L708.639 282.557" stroke="#8DB1D4" stroke-width="1.71" stroke-linecap="round" stroke-linejoin="round"/>
<path d="M706.821 318.142L690.43 299.417" stroke="#8DB1D4" stroke-width="1.71" stroke-linecap="round" stroke-linejoin="round"/>
</g>
<g opacity="0.2" clip-path="url(#clip1_5420_114930)">
<path d="M238.175 12.3115L215.248 18.6304C213.439 19.129 212.366 21.0415 212.85 22.9021L218.994 46.4846C219.478 48.3452 221.338 49.4494 223.147 48.9508L246.074 42.6319C247.883 42.1334 248.957 40.2209 248.472 38.3603L242.328 14.7778C241.844 12.9171 239.984 11.813 238.175 12.3115Z" stroke="#8DB1D4" stroke-linecap="round" stroke-linejoin="round"/>
<path d="M214.605 29.639L244.083 21.5147" stroke="#8DB1D4" stroke-linecap="round" stroke-linejoin="round"/>
<path d="M229.694 47.1439L224.428 26.9303" stroke="#8DB1D4" stroke-linecap="round" stroke-linejoin="round"/>
</g>
<g opacity="0.2">
<path d="M90.7968 93.8298C98.0684 93.8298 103.963 87.7666 103.963 80.2872C103.963 72.8078 98.0684 66.7446 90.7968 66.7446C83.5252 66.7446 77.6304 72.8078 77.6304 80.2872C77.6304 87.7666 83.5252 93.8298 90.7968 93.8298Z" stroke="#FBFCFC" stroke-width="2.375" stroke-linecap="round" stroke-linejoin="round"/>
<path d="M107.255 97.2154L100.095 89.8516" stroke="#FBFCFC" stroke-width="2.375" stroke-linecap="round" stroke-linejoin="round"/>
</g>
<g opacity="0.2">
<path d="M1085.81 234.458C1091.94 234.458 1096.9 229.352 1096.9 223.054C1096.9 216.756 1091.94 211.65 1085.81 211.65C1079.69 211.65 1074.73 216.756 1074.73 223.054C1074.73 229.352 1079.69 234.458 1085.81 234.458Z" stroke="#FBFCFC" stroke-width="1.625" stroke-linecap="round" stroke-linejoin="round"/>
<path d="M1099.67 237.309L1093.65 231.108" stroke="#FBFCFC" stroke-width="1.625" stroke-linecap="round" stroke-linejoin="round"/>
</g>
<g opacity="0.2">
<path d="M1068.14 367.8C1074.27 367.8 1079.23 362.694 1079.23 356.396C1079.23 350.097 1074.27 344.992 1068.14 344.992C1062.02 344.992 1057.06 350.097 1057.06 356.396C1057.06 362.694 1062.02 367.8 1068.14 367.8Z" stroke="#FBFCFC" stroke-width="1.625" stroke-linecap="round" stroke-linejoin="round"/>
<path d="M1082 370.651L1075.97 364.45" stroke="#FBFCFC" stroke-width="1.625" stroke-linecap="round" stroke-linejoin="round"/>
</g>
<g opacity="0.2">
<path d="M299.987 471.812C306.11 471.812 311.074 466.706 311.074 460.407C311.074 454.109 306.11 449.003 299.987 449.003C293.863 449.003 288.899 454.109 288.899 460.407C288.899 466.706 293.863 471.812 299.987 471.812Z" stroke="#FBFCFC" stroke-width="1.625" stroke-linecap="round" stroke-linejoin="round"/>
<path d="M313.846 474.663L307.818 468.462" stroke="#FBFCFC" stroke-width="1.625" stroke-linecap="round" stroke-linejoin="round"/>
</g>
<g opacity="0.2">
<path d="M608.012 33.5118C608.012 45.9852 592.42 56.6767 592.42 56.6767C592.42 56.6767 576.829 45.9852 576.829 33.5118C576.829 29.2584 578.471 25.1792 581.395 22.1717C584.319 19.1641 588.285 17.4745 592.42 17.4745C596.556 17.4745 600.521 19.1641 603.445 22.1717C606.37 25.1792 608.012 29.2584 608.012 33.5118Z" stroke="#FBFCFC" stroke-width="1.5" stroke-linecap="round" stroke-linejoin="round"/>
<path d="M592.42 38.8575C595.291 38.8575 597.618 36.4641 597.618 33.5117C597.618 30.5594 595.291 28.166 592.42 28.166C589.55 28.166 587.223 30.5594 587.223 33.5117C587.223 36.4641 589.55 38.8575 592.42 38.8575Z" stroke="#FBFCFC" stroke-width="1.5" stroke-linecap="round" stroke-linejoin="round"/>
</g>
<path opacity="0.2" d="M952.541 41.8868C952.541 44.2444 950.687 46.128 948.434 46.128C946.18 46.128 944.326 44.2444 944.326 41.8868C944.326 39.5292 946.18 37.6456 948.434 37.6456C950.687 37.6456 952.541 39.5292 952.541 41.8868Z" stroke="#FBFCFC" stroke-width="1.14"/>
<path opacity="0.2" d="M831.964 398.984C831.964 401.341 830.11 403.225 827.857 403.225C825.603 403.225 823.749 401.341 823.749 398.984C823.749 396.626 825.603 394.743 827.857 394.743C830.11 394.743 831.964 396.626 831.964 398.984Z" stroke="#FBFCFC" stroke-width="1.14"/>
<ellipse opacity="0.2" cx="1300.02" cy="260.813" rx="6.75647" ry="6.94949" fill="#FBFCFC"/>
<ellipse opacity="0.2" cx="424.548" cy="61.1315" rx="4.67754" ry="4.81119" fill="#FBFCFC"/>
<ellipse opacity="0.2" cx="99.1993" cy="397.915" rx="4.67754" ry="4.81119" fill="#FBFCFC"/>
<path opacity="0.3" d="M180.296 165.908C180.296 169.484 177.482 172.358 174.04 172.358C170.597 172.358 167.783 169.484 167.783 165.908C167.783 162.333 170.597 159.459 174.04 159.459C177.482 159.459 180.296 162.333 180.296 165.908Z" stroke="#FBFCFC"/>
<path opacity="0.3" d="M551.382 377.601C551.382 381.176 548.567 384.05 545.125 384.05C541.683 384.05 538.869 381.176 538.869 377.601C538.869 374.025 541.683 371.151 545.125 371.151C548.567 371.151 551.382 374.025 551.382 377.601Z" stroke="#FBFCFC"/>
<path opacity="0.3" d="M1251.97 22.642C1251.97 28.5793 1247.3 33.3681 1241.56 33.3681C1235.82 33.3681 1231.15 28.5793 1231.15 22.642C1231.15 16.7048 1235.82 11.9159 1241.56 11.9159C1247.3 11.9159 1251.97 16.7048 1251.97 22.642Z" stroke="#FBFCFC"/>
<path opacity="0.3" d="M1308.1 465.021C1308.1 470.958 1303.43 475.747 1297.69 475.747C1291.95 475.747 1287.28 470.958 1287.28 465.021C1287.28 459.084 1291.95 454.295 1297.69 454.295C1303.43 454.295 1308.1 459.084 1308.1 465.021Z" stroke="#FBFCFC"/>
<g opacity="0.2">
<path d="M394.938 274.811C393.767 277.659 391.936 280.168 389.604 282.12C387.273 284.072 384.512 285.407 381.563 286.007C378.614 286.608 375.566 286.457 372.687 285.566C369.808 284.676 367.185 283.074 365.048 280.9C362.91 278.726 361.322 276.046 360.424 273.096C359.525 270.145 359.343 267.012 359.894 263.972C360.444 260.933 361.71 258.078 363.581 255.657C365.452 253.237 367.871 251.325 370.626 250.088" stroke="#FBFCFC" stroke-width="1.28646" stroke-linecap="round" stroke-linejoin="round"/>
<path d="M396.393 267.448C396.393 264.962 395.917 262.5 394.992 260.203C394.067 257.907 392.711 255.82 391.002 254.062C389.293 252.304 387.264 250.91 385.031 249.959C382.798 249.007 380.405 248.518 377.988 248.518V267.448H396.393Z" stroke="#FBFCFC" stroke-width="1.28646" stroke-linecap="round" stroke-linejoin="round"/>
</g>
<g opacity="0.2">
<path d="M1219.39 210.903C1218.69 212.591 1217.61 214.078 1216.23 215.235C1214.85 216.391 1213.21 217.182 1211.46 217.538C1209.71 217.894 1207.91 217.805 1206.2 217.277C1204.5 216.749 1202.94 215.8 1201.67 214.511C1200.41 213.223 1199.47 211.635 1198.93 209.886C1198.4 208.138 1198.29 206.282 1198.62 204.48C1198.95 202.679 1199.7 200.987 1200.81 199.552C1201.91 198.118 1203.35 196.985 1204.98 196.252" stroke="#FBFCFC" stroke-width="1.78053" stroke-linecap="round" stroke-linejoin="round"/>
<path d="M1220.25 206.539C1220.25 205.066 1219.97 203.607 1219.42 202.246C1218.87 200.885 1218.07 199.648 1217.06 198.606C1216.04 197.565 1214.84 196.738 1213.52 196.174C1212.19 195.611 1210.78 195.321 1209.34 195.321V206.539H1220.25Z" stroke="#FBFCFC" stroke-width="1.78053" stroke-linecap="round" stroke-linejoin="round"/>
</g>
<g opacity="0.2">
<path d="M1000.54 487.273C999.378 490.088 997.567 492.569 995.262 494.498C992.957 496.428 990.228 497.747 987.313 498.341C984.398 498.935 981.385 498.785 978.539 497.905C975.693 497.025 973.1 495.441 970.987 493.292C968.874 491.143 967.304 488.494 966.416 485.577C965.528 482.66 965.348 479.564 965.892 476.558C966.436 473.553 967.687 470.731 969.537 468.338C971.386 465.946 973.778 464.055 976.501 462.833" stroke="#FBFCFC" stroke-width="1.78053" stroke-linecap="round" stroke-linejoin="round"/>
<path d="M1001.97 479.993C1001.97 477.535 1001.5 475.102 1000.59 472.831C999.675 470.561 998.335 468.498 996.646 466.76C994.956 465.023 992.951 463.644 990.743 462.704C988.536 461.763 986.17 461.279 983.781 461.279V479.993H1001.97Z" stroke="#FBFCFC" stroke-width="1.78053" stroke-linecap="round" stroke-linejoin="round"/>
</g>
<g opacity="0.3" clip-path="url(#clip2_5420_114930)">
<path d="M47.365 237.794L41.5339 231.208L37.2902 231.755L42.7682 238.388L42.8025 238.383L36.1246 252.289L40.7214 251.695L47.3753 237.793L47.365 237.794Z" fill="#FBFCFC"/>
<path d="M47.6756 237.754L55.4811 221.56L51.2374 222.108L43.0789 238.347L43.0686 238.349L48.5461 244.978L53.1429 244.385L47.6414 237.759L47.6756 237.754Z" fill="#FBFCFC"/>
</g>
<g opacity="0.1">
<path d="M627.045 463.045C618.558 462.694 616.569 473.633 616.148 482.351C615.875 488.003 616.329 491.333 618.996 493.072C617.818 495.046 616.844 497.594 616.807 498.352C616.745 499.649 622.091 496.741 623.313 494.438C623.988 494.523 624.723 494.582 625.52 494.615C634.006 494.968 646.286 491.389 646.707 482.671C647.128 473.954 635.532 463.398 627.045 463.045Z" fill="#FBFCFC"/>
<path d="M640.882 482.267C640.619 487.714 630.911 489.475 625.608 489.256C620.304 489.036 621.521 484.661 621.785 479.213C622.049 473.765 624.932 467.726 629.878 469.666C634.893 471.634 641.145 476.82 640.882 482.267Z" fill="#1B63A9"/>
<path d="M627.338 480.126C627.803 479.967 627.965 479.156 627.698 478.314C627.432 477.473 626.839 476.92 626.373 477.079C625.908 477.238 625.747 478.05 626.013 478.891C626.279 479.733 626.873 480.286 627.338 480.126Z" fill="#FBFCFC"/>
<path d="M632.949 478.214C633.414 478.054 633.576 477.243 633.31 476.401C633.043 475.56 632.45 475.007 631.985 475.166C631.519 475.325 631.358 476.137 631.624 476.978C631.89 477.82 632.484 478.373 632.949 478.214Z" fill="#FBFCFC"/>
<path d="M634.532 480.523C634.53 480.518 634.529 480.515 634.526 480.511C634.197 481.804 633.129 483.044 631.843 483.565C630.56 484.085 628.877 483.928 627.732 483.214C627.739 483.233 627.744 483.252 627.751 483.27C628.412 485.021 630.466 485.825 632.338 485.067C634.21 484.309 635.194 482.274 634.532 480.523Z" fill="#FBFCFC"/>
</g>
<g opacity="0.3" clip-path="url(#clip3_5420_114930)">
<path d="M1304.07 103.081L1298.23 96.4943L1293.99 97.0419L1299.47 103.674L1299.5 103.67L1292.83 117.575L1297.42 116.982L1304.08 103.08L1304.07 103.081Z" fill="#FBFCFC"/>
<path d="M1304.38 103.041L1312.18 86.8469L1307.94 87.3945L1299.78 103.634L1299.77 103.635L1305.25 110.264L1309.84 109.671L1304.34 103.045L1304.38 103.041Z" fill="#FBFCFC"/>
</g>
<defs>
<linearGradient id="paint0_linear_5420_114930" x1="-7.77777" y1="7.42734" x2="1405.6" y2="213.581" gradientUnits="userSpaceOnUse">
<stop stop-color="#164F87"/>
<stop offset="1" stop-color="#1B63A9"/>
</linearGradient>
<clipPath id="clip0_5420_114930">
<rect width="49.6254" height="49.7718" fill="white" transform="matrix(0.733713 -0.67946 0.658642 0.752456 664.486 298.016)"/>
</clipPath>
<clipPath id="clip1_5420_114930">
<rect width="40.7696" height="41.7764" fill="white" transform="matrix(0.964056 -0.265699 0.252093 0.967703 205.743 15.8324)"/>
</clipPath>
<clipPath id="clip2_5420_114930">
<rect width="33.2775" height="34.1984" fill="white" transform="matrix(0.991779 -0.127964 0.12106 0.992645 28 223.089)"/>
</clipPath>
<clipPath id="clip3_5420_114930">
<rect width="33.2775" height="34.1984" fill="white" transform="matrix(0.991779 -0.127964 0.12106 0.992645 1284.7 88.3761)"/>
</clipPath>
</defs>
</svg>
